<?xml version="1.0" encoding="UTF-8" standalone="no"?>
<!-- Created with Inkscape (http://www.inkscape.org/) -->

<svg
   width="64"
   height="64"
   viewBox="0 0 64 64"
   version="1.1"
   id="svg1"
   xml:space="preserve"
   sodipodi:docname="food_template.svg"
   inkscape:version="1.4 (86a8ad7, 2024-10-11)"
   inkscape:export-filename="beer_ico.png"
   inkscape:export-xdpi="96"
   inkscape:export-ydpi="96"
   xmlns:inkscape="http://www.inkscape.org/namespaces/inkscape"
   xmlns:sodipodi="http://sodipodi.sourceforge.net/DTD/sodipodi-0.dtd"
   xmlns="http://www.w3.org/2000/svg"
   xmlns:svg="http://www.w3.org/2000/svg"><sodipodi:namedview
     id="namedview1"
     pagecolor="#949494"
     bordercolor="#000000"
     borderopacity="0.25"
     inkscape:showpageshadow="2"
     inkscape:pageopacity="0.0"
     inkscape:pagecheckerboard="0"
     inkscape:deskcolor="#b1b1b1"
     inkscape:document-units="px"
     inkscape:zoom="4"
     inkscape:cx="28.875"
     inkscape:cy="12"
     inkscape:window-width="2560"
     inkscape:window-height="1369"
     inkscape:window-x="-8"
     inkscape:window-y="-8"
     inkscape:window-maximized="1"
     inkscape:current-layer="layer1"
     showguides="true"
     showgrid="true"><inkscape:grid
       id="grid3"
       units="px"
       originx="0"
       originy="0"
       spacingx="4"
       spacingy="4"
       empcolor="#0099e5"
       empopacity="0.30196078"
       color="#0099e5"
       opacity="0.14901961"
       empspacing="4"
       enabled="true"
       visible="true"
       dotted="false" /><inkscape:page
       x="0"
       y="0"
       width="64"
       height="64"
       id="page2"
       margin="0"
       bleed="0" /></sodipodi:namedview><defs
     id="defs1"><inkscape:path-effect
       effect="offset"
       id="path-effect17"
       is_visible="true"
       lpeversion="1.3"
       linejoin_type="miter"
       unit="px"
       offset="1"
       miter_limit="4"
       attempt_force_join="false"
       update_on_knot_move="true" /></defs><g
     inkscape:label="Layer 1"
     inkscape:groupmode="layer"
     id="layer1"><path
       id="rect12-1-4-5-8"
       style="fill:#ffffff;fill-opacity:1;stroke-width:2.32703;stroke-linecap:round;stroke-linejoin:round;paint-order:fill markers stroke"
       d="M 7.6211821,22.209231 H 49.649366 V 48.645374 H 7.6211821 Z"
       sodipodi:nodetypes="ccccc" /><path
       id="rect12"
       style="fill:#f79307;stroke-width:1.20721;stroke-linecap:round;stroke-linejoin:round;paint-order:fill markers stroke"
       d="M 22.866522,48.645374 H 49.649366 V 59.809956 H 22.866522 Z"
       sodipodi:nodetypes="ccccc" /><path
       id="rect12-1"
       style="fill:#f79307;stroke-width:0.75514;stroke-linecap:round;stroke-linejoin:round;paint-order:fill markers stroke"
       d="M 7.1322106,48.645374 H 17.611812 V 59.809956 H 7.1322106 Z"
       sodipodi:nodetypes="ccccc" /><path
       id="rect12-9"
       style="fill:#fcb709;stroke-width:1.50821;stroke-linecap:round;stroke-linejoin:round;paint-order:fill markers stroke"
       d="M 22.866522,31.495521 H 50.081038 V 48.645374 H 22.866522 Z"
       sodipodi:nodetypes="ccccc" /><path
       id="rect12-1-4"
       style="fill:#fcb709;stroke-width:0.931498;stroke-linecap:round;stroke-linejoin:round;paint-order:fill markers stroke"
       d="M 7.1322095,31.657041 H 17.611812 V 48.645373 H 7.1322095 Z"
       sodipodi:nodetypes="ccccc" /><path
       id="rect12-1-4-5"
       style="fill:#fcb709;stroke-width:0.517029;stroke-linecap:round;stroke-linejoin:round;paint-order:fill markers stroke"
       d="m 17.611812,48.645374 h 5.25471 v 10.437974 h -5.25471 z"
       sodipodi:nodetypes="ccccc" /><path
       id="path9"
       style="fill:#ffffff;fill-opacity:1;stroke-linecap:round;stroke-linejoin:round;paint-order:fill markers stroke"
       d="m 16.839844,0.8515625 c -4.87963,0 -8.8632745,3.9836524 -8.8632815,8.8632813 v 0.109375 C 4.7261165,10.791456 2.2949219,13.694107 2.2949219,17.273437 v 2.832032 c 0,1.396422 0.5320699,2.671046 1.3925781,3.646484 V 57.5625 c 0,3.025707 2.480152,5.505859 5.5058594,5.505859 H 47.294922 c 3.025707,0 5.505859,-2.480152 5.505859,-5.505859 v -4.212891 h 0.570313 c 5.364509,0 9.74414,-4.379632 9.74414,-9.74414 V 26.138672 c 0,-3.569435 -2.924706,-6.494141 -6.49414,-6.494141 h -3.431641 c 0.04694,-0.302614 0.07813,-0.610258 0.07813,-0.925781 v -5.121094 c 0,-2.854544 -1.748948,-5.4294664 -4.400391,-6.4843748 L 47.326172,6.5 46.779297,5.1894531 C 45.681805,2.5645962 43.106448,0.8515625 40.261719,0.8515625 Z m 0,5 h 23.421875 c 0.842866,0 1.581066,0.4917945 1.90625,1.2695312 l 0.820312,1.9609376 c 0.34359,0.8217163 1.005595,1.4731497 1.833985,1.8027347 l 2.199218,0.875 c 0.764327,0.304096 1.246094,1.01491 1.246094,1.83789 v 2.712891 H 9.1933594 c -0.6399519,0 -1.2538537,0.114122 -1.8261719,0.318359 0.121383,-0.555704 0.3942514,-1.044642 0.7773438,-1.427734 0.5256463,-0.525647 1.2458865,-0.849609 2.0722657,-0.849609 0.50558,5.3e-5 0.999616,-0.153388 1.416016,-0.439454 1.281444,-0.879617 1.77495,-2.49437 1.34375,-3.9160152 v -0.28125 c 10e-7,-1.0853038 0.428536,-2.0418177 1.125,-2.7382813 0.696463,-0.6964636 1.652978,-1.125 2.738281,-1.125 z M 22.857422,21.310547 H 27.0625 c -1.34491,0.01582 -2.75126,0.01401 -4.205078,0 z m 24.912109,3.408203 0.03125,4.738281 v 21.53125 6.574219 c 0,0.166974 -0.05547,0.280082 -0.140625,0.365234 -0.08515,0.08515 -0.19826,0.140625 -0.365234,0.140625 H 9.1933594 c -0.1669741,0 -0.2800822,-0.05547 -0.3652344,-0.140625 C 8.7429728,57.842582 8.6875,57.729474 8.6875,57.5625 V 25.855469 c 2.172406,0.458954 4.793894,0.718265 7.646484,0.824218 2.694614,0.100086 5.615239,0.07529 8.552735,-0.02734 2.35172,-0.08217 4.720626,-0.214056 7.005859,-0.373047 1.828522,-0.127216 3.604668,-0.272235 5.275391,-0.421875 1.336618,-0.119716 2.606833,-0.242869 3.783203,-0.363281 0.0888,-0.0091 4.553384,-0.485633 6.818359,-0.775391 z m 5.501953,0.425781 h 3.34961 c 0.302188,0 0.537283,0.109549 0.710937,0.283203 0.173655,0.173655 0.283203,0.40875 0.283203,0.710938 v 17.466797 c 0,1.192449 -0.4715,2.242984 -1.236328,3.007812 -0.753362,0.753362 -1.784699,1.220518 -2.955078,1.234375 z"
       sodipodi:nodetypes="ssccsscsssscsssscsscccssssccccscsscscccssscscscccsssscsccsssscc"
       inkscape:path-effect="#path-effect17"
       inkscape:original-d="m 16.839844,1.8515625 c -4.324608,0 -7.8632753,3.5386738 -7.8632815,7.8632813 v 0.7421872 c 0.012076,0.04689 0.026416,0.09317 0.042969,0.138672 -3.2177308,0.590533 -5.7246093,3.29687 -5.7246093,6.677735 v 2.832031 c 0,1.2716 0.5372813,2.42628 1.3925781,3.253906 V 57.5625 c 0,2.470629 2.0352301,4.505859 4.5058594,4.505859 H 47.294922 c 2.470629,0 4.505859,-2.03523 4.505859,-4.505859 v -5.212891 h 1.570313 c 4.808368,0 8.74414,-3.935773 8.74414,-8.74414 V 26.138672 c 0,-3.013823 -2.480317,-5.494141 -5.49414,-5.494141 h -4.734375 c 0.24447,-0.595944 0.380859,-1.245822 0.380859,-1.925781 v -5.121094 c 0,-2.444604 -1.498103,-4.650972 -3.769531,-5.5546872 L 46.566406,7.2734375 45.857422,5.5761719 C 44.915684,3.3238298 42.703014,1.8515625 40.261719,1.8515625 Z m 0,3 h 23.421875 c 1.240035,0 2.349777,0.7387546 2.828125,1.8828125 l 0.820312,1.9609375 c 0.240145,0.5743219 0.7028,1.0296222 1.28125,1.2597656 l 2.199219,0.8749999 c 1.138228,0.452858 1.876953,1.542572 1.876953,2.767578 v 3.761719 c -0.154863,-0.02528 -0.311399,-0.04883 -0.472656,-0.04883 H 9.1933594 c -1.0996514,0 -2.1123595,0.404999 -2.8984375,1.070312 v -1.107421 c 0,-2.183648 1.7382263,-3.921876 3.9218751,-3.921876 0.303348,3.2e-5 0.599578,-0.0919 0.849609,-0.263671 0.961905,-0.660277 1.309813,-1.910333 0.910156,-2.962891 V 9.7148438 c 3e-6,-2.7032887 2.159993,-4.8632813 4.863282,-4.8632813 z M 9.1933594,20.310547 H 48.552734 c -0.650209,0.575128 -16.309109,3.258429 -40.7187496,1.333984 -0.044493,0 -0.08551,-0.0102 -0.1289063,-0.01367 0.088849,-0.756257 0.7028039,-1.320312 1.4882813,-1.320312 z m 39.5683596,3.265625 0.03906,5.880859 v 21.53125 6.574219 c 0,0.849309 -0.65655,1.505859 -1.505859,1.505859 H 9.1933594 C 8.3440507,59.068359 7.6875,58.411809 7.6875,57.5625 V 24.636719 c 0.049085,0.0016 0.09704,0.0078 0.1464844,0.0078 11.1640336,2.983382 40.8672796,-1.04796 40.9277346,-1.068359 z m 3.503906,0.568359 h 4.355469 c 1.122283,0 1.99414,0.871858 1.99414,1.994141 v 17.466797 c 0,2.916826 -2.327312,5.24414 -5.24414,5.24414 h -0.941406 z" /><path
       id="rect12-1-4-5-8-7-9"
       style="fill:#ffffff;fill-opacity:1;stroke-width:2.32703;stroke-linecap:round;stroke-linejoin:round;paint-order:fill markers stroke"
       d="M 7.663941,22.214677 H 49.692125 V 48.65082 H 7.663941 Z"
       sodipodi:nodetypes="ccccc" /><path
       id="rect12-8-9"
       style="fill:#f79307;stroke-width:1.20721;stroke-linecap:round;stroke-linejoin:round;paint-order:fill markers stroke"
       d="M 22.909281,48.65082 H 49.692125 V 59.815402 H 22.909281 Z"
       sodipodi:nodetypes="ccccc" /><path
       id="rect12-1-3-2"
       style="fill:#f79307;stroke-width:0.75514;stroke-linecap:round;stroke-linejoin:round;paint-order:fill markers stroke"
       d="M 7.17497,48.65082 H 17.654571 V 59.815402 H 7.17497 Z"
       sodipodi:nodetypes="ccccc" /><path
       id="rect12-9-8-5"
       style="fill:#fcb709;stroke-width:1.50821;stroke-linecap:round;stroke-linejoin:round;paint-order:fill markers stroke"
       d="M 22.909281,31.500967 H 50.123797 V 48.65082 H 22.909281 Z"
       sodipodi:nodetypes="ccccc" /><path
       id="rect12-1-4-3-5"
       style="fill:#fcb709;stroke-width:0.931498;stroke-linecap:round;stroke-linejoin:round;paint-order:fill markers stroke"
       d="M 7.174969,31.662487 H 17.654571 V 48.650819 H 7.174969 Z"
       sodipodi:nodetypes="ccccc" /><path
       id="rect12-1-4-5-7-3"
       style="fill:#fcb709;stroke-width:0.517029;stroke-linecap:round;stroke-linejoin:round;paint-order:fill markers stroke"
       d="m 17.654571,48.65082 h 5.25471 v 10.437974 h -5.25471 z"
       sodipodi:nodetypes="ccccc" /><path
       style="fill:none;fill-opacity:1;stroke:#000000;stroke-width:3;stroke-linecap:round;stroke-linejoin:round;stroke-dasharray:none;stroke-opacity:1;paint-order:fill markers stroke"
       d="m 9.236557,60.572965 h 38.101306 c 1.659969,0 3.00564,-1.345671 3.00564,-3.00564 V 50.993402 20.321786 c 0,-0.831326 -0.673923,-1.505249 -1.505249,-1.505249 H 9.236557 c -1.659969,0 -3.00564,1.345671 -3.00564,3.00564 v 35.745148 c 0,1.659969 1.345671,3.00564 3.00564,3.00564 z"
       id="path9-1-3"
       sodipodi:nodetypes="ccccccsssc" /><path
       style="fill:#ffffff;fill-opacity:1;stroke:#000000;stroke-width:3;stroke-linecap:round;stroke-linejoin:round;stroke-dasharray:none;stroke-opacity:1;paint-order:fill markers stroke"
       d="m 16.882041,3.3569016 h 23.423304 c 1.840665,0 3.50122,1.105559 4.211263,2.803759 l 0.820306,1.961915 c 0.08478,0.202757 0.247644,0.362822 0.451843,0.444065 l 2.198463,0.874684 c 1.704828,0.6782874 2.82369,2.3276034 2.82369,4.1624084 v 5.12141 c 0,2.002866 -1.623643,3.626509 -3.626509,3.626509 h -4.73584 c -0.750175,0 -1.358312,0.608137 -1.358312,1.358311 v 10.168812 c 0,3.074134 -2.492077,5.566212 -5.566211,5.566212 h -1.180654 c -3.276295,0 -5.932256,-2.655961 -5.932256,-5.932256 V 26.8705 c 0,-2.054794 -1.66574,-3.720533 -3.720533,-3.720533 h -0.778241 c -1.918759,0 -3.473101,1.557578 -3.46911,3.476333 l 0.0033,1.595297 c 0.0036,1.750454 -1.410768,3.173304 -3.161213,3.18008 l -0.834393,0.0032 c -1.895401,0.0073 -3.444269,-1.510959 -3.474713,-3.40613 l -0.03295,-2.051158 c -0.02494,-1.552317 -1.290438,-2.797652 -2.842954,-2.797652 H 7.877202 c -1.678377,0 -3.03897,-1.360593 -3.03897,-3.03897 v -2.831803 c 0,-2.994309 2.427367,-5.421676 5.421676,-5.421676 0.457121,-0.31378 0.573323,-0.938718 0.259544,-1.395839 V 9.7194366 c 5e-6,-3.513948 2.848624,-6.362564 6.362572,-6.362564 z"
       id="path10-0-3"
       sodipodi:nodetypes="cccccccccccccccccsssssssssssccsc" /><path
       style="fill:none;fill-opacity:1;stroke:#000000;stroke-width:3.5;stroke-linecap:round;stroke-linejoin:round;stroke-dasharray:none;stroke-opacity:1;paint-order:fill markers stroke"
       d="m 50.73427,50.605683 h 2.679849 c 3.8626,0 6.99385,-3.131254 6.99385,-6.993851 V 26.145015 c 0,-2.068053 -1.67649,-3.744541 -3.74454,-3.744541 h -6.116997 z"
       id="path11-7-7"
       sodipodi:nodetypes="ccccccc" /></g></svg>
